<?xml version="1.0" encoding="UTF-8" standalone="no"?>
<svg
   version="1.1"
   id="mdi-pirate"
   width="35mm"
   height="35mm"
   viewBox="0 0 132.28347 132.28347"
   sodipodi:docname="logo.svg"
   inkscape:version="1.2.2 (b0a8486541, 2022-12-01)"
   xmlns:inkscape="http://www.inkscape.org/namespaces/inkscape"
   xmlns:sodipodi="http://sodipodi.sourceforge.net/DTD/sodipodi-0.dtd"
   xmlns="http://www.w3.org/2000/svg"
   xmlns:svg="http://www.w3.org/2000/svg">
  <defs
     id="defs7" />
  <sodipodi:namedview
     id="namedview5"
     pagecolor="#ffffff"
     bordercolor="#000000"
     borderopacity="0.25"
     inkscape:showpageshadow="2"
     inkscape:pageopacity="0.0"
     inkscape:pagecheckerboard="0"
     inkscape:deskcolor="#d1d1d1"
     showgrid="false"
     inkscape:zoom="1.8911424"
     inkscape:cx="12.161961"
     inkscape:cy="-28.289779"
     inkscape:window-width="1452"
     inkscape:window-height="1230"
     inkscape:window-x="170"
     inkscape:window-y="127"
     inkscape:window-maximized="0"
     inkscape:current-layer="mdi-pirate"
     inkscape:document-units="mm" />
  <path
     d="m 44.254272,66.701915 c -1.766746,1.177831 -2.944578,3.533494 -2.355662,5.300244 0,4.122405 4.122409,7.066982 7.655903,7.066982 3.533494,0 7.066988,-2.944577 7.066988,-7.066982 -3.533494,-2.355666 -7.655904,-4.122413 -12.367229,-5.300244 m 81.270358,-6.478072 5.88916,-23.556625 c 0,0 -11.77831,0 -29.44578,-11.778313 C 84.300536,13.110593 84.300536,1.3322801 66.633066,1.3322801 48.965597,1.3322801 48.965597,13.110593 31.298129,24.888905 13.63066,36.667218 1.8523469,36.667218 1.8523469,36.667218 l 5.8891564,23.556625 h 0.5889154 c -0.5889154,1.766747 -0.5889154,4.122409 -0.5889154,5.889156 0,20.612045 10.6004807,38.868431 26.5012027,49.468921 l -2.944577,5.30024 c 37.6906,24.14553 70.669881,0 70.669881,0 l -2.944581,-5.30024 c 15.900721,-10.60049 26.501201,-28.856876 26.501201,-49.468921 0,-1.766747 0,-4.122409 0,-5.889156 m -63.013973,-38.279516 -8.244819,-8.244819 4.12241,-4.1224093 8.244818,8.2448183 8.244818,-8.2448183 4.122412,4.1224093 -8.244817,8.244819 8.244817,8.244819 -4.122412,4.12241 -8.244818,-8.244819 -8.244818,8.244819 -4.12241,-4.12241 8.244819,-8.244819 M 50.732344,45.500952 c 5.889157,-1.766747 11.778313,-2.944578 15.900722,-2.944578 12.956144,0 34.746024,9.42265 45.935424,14.133975 0.58891,1.766747 0.58891,3.533494 0.58891,5.300241 L 50.732344,45.500952 m 25.323375,62.425058 c -4.122412,2.35566 -8.244822,4.12241 -12.956147,4.71132 -2.944577,-2.35566 -2.944577,-7.06698 0,-9.42264 2.355663,-2.35567 7.655907,-3.533502 10.600484,-0.58892 1.766749,0.58892 2.355663,3.53349 2.355663,5.30024 M 113.74632,74.357815 c -2.94458,12.367229 -10.60048,23.55663 -20.612046,30.623615 L 84.300536,89.669621 H 48.965597 L 40.131863,104.98143 C 27.764635,96.73661 19.519816,82.602639 19.519816,66.112999 c 0,-2.944578 0.588915,-5.889156 1.177831,-8.833734 2.944578,-1.177831 6.478072,-2.944578 10.600482,-4.711325 l 41.813013,11.189397 v 14.133976 c 0,2.944577 2.355663,5.889154 5.889154,5.889154 h 11.778315 c 2.944577,0 5.889154,-2.355663 5.889154,-5.889154 v -8.24482 z"
     id="path2"
     style="stroke-width:5.88915" />
</svg>
